<?xml version="1.0" standalone="no"?>
<!DOCTYPE svg PUBLIC "-//W3C//DTD SVG 20010904//EN"
 "http://www.w3.org/TR/2001/REC-SVG-20010904/DTD/svg10.dtd">
<svg version="1.0" xmlns="http://www.w3.org/2000/svg"
 width="240.000000pt" height="240.000000pt" viewBox="0 0 240.000000 240.000000"
 preserveAspectRatio="xMidYMid meet">
<metadata>
Created by potrace 1.11, written by Peter Selinger 2001-2013
</metadata>
<g transform="translate(0.000000,240.000000) scale(0.100000,-0.100000)"
fill="#000000" stroke="none">
<path d="M1897 719 c-72 -38 -97 -121 -57 -186 22 -37 45 -53 120 -84 75 -30
95 -50 81 -78 -16 -29 -92 -29 -141 0 l-34 21 -35 -37 c-33 -37 -33 -39 -15
-53 73 -56 187 -69 264 -29 77 39 103 130 57 198 -17 26 -44 43 -107 70 -46
20 -89 43 -94 52 -26 42 63 64 126 31 30 -15 31 -15 58 18 33 39 27 51 -35 79
-54 25 -139 24 -188 -2z"/>
<path d="M1639 568 c-1 -90 -4 -174 -8 -188 -9 -34 -64 -40 -95 -11 l-22 21
-37 -27 c-34 -24 -36 -28 -24 -47 28 -42 65 -60 130 -64 49 -2 69 1 94 17 61
38 68 65 71 274 l4 187 -56 0 -56 0 -1 -162z"/>
<path d="M240 425 l0 -175 25 0 25 0 0 138 0 137 76 -137 c70 -128 78 -138
105 -138 l29 0 0 175 0 175 -25 0 -25 0 0 -137 0 -138 -77 138 c-70 126 -78
137 -105 137 l-28 0 0 -175z"/>
<path d="M877 584 c-4 -4 -7 -22 -7 -41 0 -26 -4 -33 -20 -33 -13 0 -20 -7
-20 -20 0 -13 7 -20 20 -20 19 0 20 -7 20 -90 0 -77 3 -93 21 -111 25 -25 92
-24 97 3 2 12 -5 17 -30 20 l-33 3 -3 87 -3 87 33 3 c22 2 34 9 36 21 3 13 -4
17 -32 17 -33 0 -35 2 -38 37 -3 36 -23 54 -41 37z"/>
<path d="M1047 584 c-4 -4 -7 -22 -7 -41 0 -26 -4 -33 -20 -33 -13 0 -20 -7
-20 -20 0 -13 7 -20 20 -20 19 0 20 -7 20 -90 0 -77 3 -93 21 -111 25 -25 92
-24 97 3 2 12 -5 17 -30 20 l-33 3 -3 87 -3 87 33 3 c22 2 34 9 36 21 3 13 -4
17 -32 17 -33 0 -35 2 -38 37 -3 36 -23 54 -41 37z"/>
<path d="M611 484 c-92 -77 -43 -234 74 -234 32 0 51 7 74 26 92 77 43 234
-74 234 -32 0 -51 -7 -74 -26z m109 -24 c29 -16 44 -73 30 -116 -23 -67 -99
-72 -126 -8 -34 82 27 161 96 124z"/>
<path d="M1232 503 c-7 -3 -19 -18 -27 -33 -22 -42 -4 -74 55 -99 26 -11 53
-27 60 -36 29 -34 -42 -61 -92 -34 -16 8 -24 8 -35 -4 -14 -14 -12 -17 15 -31
61 -32 144 -15 160 33 15 43 -2 70 -63 97 -62 29 -72 39 -55 59 14 17 53 19
81 5 27 -15 40 17 14 36 -18 14 -87 18 -113 7z"/>
</g>
</svg>
